<svg width="27" height="27" viewBox="0 0 27 27" fill="none" xmlns="http://www.w3.org/2000/svg">
<path d="M26.3567 26.137L18.7821 18.2596C20.7141 16.322 21.9111 13.6509 21.9111 10.705C21.9111 4.80195 17.1091 0 11.2061 0C5.30305 0 0.501099 4.80195 0.501099 10.705C0.501099 16.608 5.30305 21.41 11.2061 21.41C13.7972 21.41 16.1752 20.4837 18.0287 18.9468L25.6216 26.8435C25.7215 26.948 25.8551 27 25.9891 27C26.1166 27 26.2435 26.9526 26.3424 26.8578C26.5453 26.6625 26.5514 26.3399 26.3567 26.137ZM11.2061 20.3904C5.86531 20.3904 1.52062 16.0457 1.52062 10.705C1.52062 5.36421 5.86531 1.01952 11.2061 1.01952C16.5468 1.01952 20.8915 5.36421 20.8915 10.705C20.8915 16.0457 16.5463 20.3904 11.2061 20.3904Z" fill="#00260F"/>
</svg>
